<svg width="24" height="24" viewBox="0 0 24 24" fill="none" xmlns="http://www.w3.org/2000/svg">
<path d="M12 2.00488C11.3408 2.00488 10.6813 2.25431 10.1826 2.75293L3.93557 9H2.24025C1.46947 9 0.865548 9.73361 1.01369 10.4902L2.75197 19.374C3.04944 20.8951 4.39189 22 5.94142 22H18.0488C19.5984 22 20.9408 20.8951 21.2383 19.374L22.9766 10.4902C23.1247 9.73361 22.5208 9 21.75 9H20.0645L13.8164 2.75293C13.3178 2.25431 12.6592 2.00488 12 2.00488ZM12 3.49512C12.2723 3.49512 12.544 3.6016 12.7559 3.81348L17.9434 9H6.05666L11.2432 3.81348C11.4551 3.6016 11.7277 3.49512 12 3.49512ZM2.54494 10.5H4.13576C4.20412 10.5095 4.27346 10.5095 4.34182 10.5H19.6602C19.7269 10.509 19.7946 10.509 19.8613 10.5H21.4463L19.7666 19.0859C19.6051 19.9119 18.8903 20.5 18.0488 20.5H5.94142C5.09996 20.5 4.38518 19.9119 4.22365 19.0859L2.54494 10.5ZM6.22951 12.4893C6.12476 12.492 6.02175 12.5166 5.92711 12.5616C5.83247 12.6066 5.74831 12.6709 5.68004 12.7504C5.61177 12.8299 5.56091 12.9228 5.53075 13.0231C5.50059 13.1235 5.49178 13.229 5.5049 13.333L6.0049 17.833C6.01297 17.9331 6.04106 18.0306 6.08751 18.1196C6.13395 18.2087 6.1978 18.2875 6.27528 18.3514C6.35275 18.4153 6.44226 18.463 6.53851 18.4916C6.63476 18.5203 6.73579 18.5293 6.8356 18.5182C6.93541 18.5071 7.03197 18.476 7.11955 18.4269C7.20713 18.3777 7.28396 18.3115 7.34547 18.2321C7.40698 18.1528 7.45192 18.0618 7.47763 17.9647C7.50334 17.8677 7.50929 17.7664 7.49514 17.667L6.99514 13.167C6.9769 12.9781 6.88777 12.8032 6.7457 12.6775C6.60363 12.5517 6.41918 12.4844 6.22951 12.4893ZM10.2383 12.4893C10.0396 12.4924 9.85017 12.5742 9.71175 12.7169C9.57332 12.8595 9.49717 13.0513 9.50002 13.25V17.75C9.49861 17.8494 9.51697 17.9481 9.55404 18.0403C9.5911 18.1325 9.64612 18.2164 9.7159 18.2872C9.78568 18.358 9.86884 18.4142 9.96053 18.4526C10.0522 18.4909 10.1506 18.5107 10.25 18.5107C10.3494 18.5107 10.4478 18.4909 10.5395 18.4526C10.6312 18.4142 10.7144 18.358 10.7841 18.2872C10.8539 18.2164 10.9089 18.1325 10.946 18.0403C10.9831 17.9481 11.0014 17.8494 11 17.75V13.25C11.0015 13.1496 10.9827 13.05 10.945 12.957C10.9072 12.8639 10.8511 12.7795 10.7801 12.7085C10.709 12.6376 10.6245 12.5816 10.5314 12.544C10.4384 12.5063 10.3387 12.4877 10.2383 12.4893ZM13.7383 12.4893C13.5396 12.4924 13.3502 12.5742 13.2117 12.7169C13.0733 12.8595 12.9972 13.0513 13 13.25V17.75C12.9986 17.8494 13.017 17.9481 13.054 18.0403C13.0911 18.1325 13.1461 18.2164 13.2159 18.2872C13.2857 18.358 13.3688 18.4142 13.4605 18.4526C13.5522 18.4909 13.6506 18.5107 13.75 18.5107C13.8494 18.5107 13.9478 18.4909 14.0395 18.4526C14.1312 18.4142 14.2144 18.358 14.2841 18.2872C14.3539 18.2164 14.4089 18.1325 14.446 18.0403C14.4831 17.9481 14.5014 17.8494 14.5 17.75V13.25C14.5015 13.1496 14.4827 13.05 14.445 12.957C14.4072 12.8639 14.3511 12.7795 14.2801 12.7085C14.209 12.6376 14.1245 12.5816 14.0314 12.544C13.9384 12.5063 13.8387 12.4877 13.7383 12.4893ZM17.7481 12.4893C17.5622 12.4901 17.3834 12.5599 17.2461 12.6851C17.1088 12.8103 17.0228 12.982 17.0049 13.167L16.5049 17.667C16.4907 17.7664 16.4967 17.8677 16.5224 17.9647C16.5481 18.0618 16.5931 18.1528 16.6546 18.2321C16.7161 18.3115 16.7929 18.3777 16.8805 18.4269C16.9681 18.476 17.0646 18.5071 17.1644 18.5182C17.2642 18.5293 17.3653 18.5203 17.4615 18.4916C17.5578 18.463 17.6473 18.4153 17.7248 18.3514C17.8022 18.2875 17.8661 18.2087 17.9125 18.1196C17.959 18.0306 17.9871 17.9331 17.9951 17.833L18.4951 13.333C18.5085 13.2272 18.4991 13.1198 18.4676 13.0179C18.4361 12.916 18.3832 12.8219 18.3125 12.7421C18.2418 12.6622 18.1549 12.5984 18.0576 12.5548C17.9602 12.5112 17.8547 12.4888 17.7481 12.4893Z" fill="#151614"/>
</svg>
