<svg width="24" height="24" viewBox="0 0 24 24" fill="none" xmlns="http://www.w3.org/2000/svg">
<path d="M6.73533 6.49323C6.54055 6.49891 6.35563 6.58016 6.2197 6.71979L1.2197 11.7198C1.07911 11.8605 1.00012 12.0512 1.00012 12.2501C1.00012 12.4489 1.07911 12.6397 1.2197 12.7803L6.2197 17.7803C6.28881 17.8523 6.37159 17.9098 6.46319 17.9494C6.55478 17.989 6.65336 18.0099 6.75314 18.0109C6.85292 18.0119 6.95189 17.993 7.04428 17.9553C7.13666 17.9176 7.22058 17.8618 7.29114 17.7912C7.3617 17.7207 7.41747 17.6367 7.45519 17.5444C7.49291 17.452 7.51181 17.353 7.5108 17.2532C7.50978 17.1534 7.48887 17.0549 7.44928 16.9633C7.40969 16.8717 7.35223 16.7889 7.28025 16.7198L3.56052 13.0001H22.25C22.3494 13.0015 22.448 12.9831 22.5403 12.9461C22.6325 12.909 22.7164 12.854 22.7872 12.7842C22.858 12.7144 22.9142 12.6312 22.9525 12.5396C22.9909 12.4479 23.0107 12.3495 23.0107 12.2501C23.0107 12.1507 22.9909 12.0523 22.9525 11.9606C22.9142 11.8689 22.858 11.7857 22.7872 11.7159C22.7164 11.6462 22.6325 11.5911 22.5403 11.5541C22.448 11.517 22.3494 11.4987 22.25 11.5001H3.56052L7.28025 7.78034C7.38845 7.67496 7.46232 7.53938 7.49219 7.39132C7.52205 7.24327 7.50653 7.08965 7.44765 6.95056C7.38876 6.81148 7.28926 6.69341 7.16217 6.61181C7.03507 6.53021 6.8863 6.48888 6.73533 6.49323Z" fill="#151614"/>
</svg>
