<svg width="187" height="64" viewBox="0 0 187 64" fill="none" xmlns="http://www.w3.org/2000/svg">
<g clip-path="url(#clip0_223_612)">
<path d="M81.9569 15.2937C82.212 15.2937 82.4813 15.3215 82.7506 15.3911C83.02 15.4607 83.3034 15.572 83.6295 15.739C83.9413 15.906 84.239 16.1287 84.4941 16.4209C84.7492 16.6992 84.9902 17.0611 85.2312 17.4925C85.4721 17.9238 85.6422 18.4527 85.7556 19.051C85.869 19.6634 85.9399 20.3731 85.9824 21.1802C86.0108 21.9873 85.9541 22.9058 85.8123 23.9356L83.0058 24.1582L83.1901 22.4327C83.4027 19.5799 83.0483 18.0073 82.1128 17.729C81.9569 17.6734 81.7868 17.6594 81.6025 17.7012C81.2481 17.7569 80.9363 17.8682 80.667 18.0213C80.3977 18.1743 80.1851 18.3552 80.0291 18.5779C79.8732 18.7866 79.7598 18.9815 79.6748 19.1763C79.5897 19.3572 79.533 19.552 79.4905 19.7747L79.2921 23.9634L77.0667 24.1861L76.7407 12.5105L79.859 12.9558L79.689 16.2261C80.4544 15.6138 81.2056 15.3076 81.971 15.3076L81.9569 15.2937Z" fill="#151614"/>
<path d="M93.0555 15.3076L95.9612 15.4746L95.5218 23.9356L93.3106 24.1582V23.6851C92.6302 23.9356 92.0207 24.0887 91.4538 24.1722C90.8868 24.2557 90.4049 24.2417 89.9938 24.1722C89.5969 24.0887 89.2284 23.9634 88.8882 23.7825C88.548 23.6016 88.2787 23.3929 88.0802 23.1284C87.8818 22.878 87.6975 22.5996 87.5416 22.3213C87.3857 22.043 87.2723 21.7647 87.1872 21.5003C87.1164 21.2219 87.0597 20.9854 87.003 20.7627C86.9605 20.5401 86.9321 20.3731 86.9179 20.2339V20.0391C86.9038 19.3433 86.9746 18.731 87.1022 18.1882C87.2439 17.6455 87.414 17.2141 87.6408 16.8801C87.8676 16.5461 88.1369 16.2678 88.4488 16.0452C88.7606 15.8225 89.0866 15.6694 89.3985 15.572C89.7103 15.4746 90.0505 15.4189 90.4048 15.3911C90.7592 15.3633 91.0852 15.3772 91.3545 15.3911C91.6239 15.4189 91.9073 15.4607 92.1908 15.5303C92.4743 15.5999 92.6728 15.6416 92.7862 15.6694C92.8996 15.6973 92.9846 15.7251 93.0555 15.7529V15.3076ZM89.8946 18.5779C89.7386 18.8701 89.6253 19.2459 89.5827 19.7051C89.526 20.1643 89.5686 20.5401 89.682 20.8462C89.7953 21.1524 89.9513 21.3611 90.1497 21.5003C90.3481 21.6394 90.5891 21.7229 90.8868 21.7508C91.1703 21.7786 91.4396 21.7925 91.6806 21.7508C91.9215 21.709 92.1767 21.6673 92.4602 21.5977C92.7436 21.5281 92.9137 21.4585 93.013 21.4307C93.1122 21.4029 93.183 21.3611 93.2397 21.3333L93.1547 18.3413C93.1547 18.3413 93.098 18.2996 92.9846 18.23C92.8712 18.1604 92.7153 18.1047 92.5168 18.0213C92.3184 17.9378 92.1058 17.8682 91.8648 17.8125C91.6239 17.7568 91.3971 17.729 91.1419 17.7568C90.8868 17.7847 90.66 17.8543 90.4474 17.9656C90.2348 18.0769 90.0505 18.2857 89.8946 18.5779Z" fill="#151614"/>
<path d="M103.573 19.5659L106.068 20.5679C106.068 20.5679 106.039 20.6514 106.039 20.7071C106.039 20.7627 105.997 20.8741 105.926 21.041C105.869 21.208 105.798 21.375 105.727 21.5281C105.657 21.6951 105.543 21.876 105.416 22.0987C105.274 22.3213 105.132 22.5162 104.976 22.711C104.82 22.9058 104.636 23.0867 104.409 23.2815C104.182 23.4764 103.942 23.6294 103.701 23.7547C103.445 23.8799 103.162 23.9913 102.822 24.0608C102.482 24.1443 102.141 24.1722 101.773 24.1582C99.0797 24.0887 97.7189 22.1404 97.7189 18.3135L96.8401 18.2857V16.2678L97.8323 16.24L98.1867 12.4827L101.064 12.8723C100.866 14.3196 100.738 15.419 100.653 16.1565L103.219 16.0869L102.949 18.5918L100.497 18.4805C100.469 19.4964 100.568 20.2478 100.781 20.7627C100.993 21.2637 101.362 21.5559 101.872 21.6116C102.127 21.6394 102.354 21.5977 102.552 21.4724C102.751 21.3472 102.921 21.1802 103.049 20.9715C103.176 20.7627 103.275 20.554 103.36 20.3452C103.445 20.1365 103.502 19.9556 103.516 19.8164L103.573 19.5938V19.5659Z" fill="#151614"/>
<path d="M110.037 21.6394C110.235 21.7786 110.504 21.8621 110.83 21.8621C111.156 21.8621 111.454 21.8343 111.737 21.7647C112.021 21.6951 112.304 21.5977 112.616 21.4585C112.928 21.3194 113.127 21.2359 113.24 21.1802C113.353 21.1245 113.438 21.0689 113.509 21.0271L115.309 22.6414C115.309 22.6414 115.253 22.697 115.224 22.7388C115.196 22.7805 115.111 22.8501 114.969 22.9615C114.827 23.0728 114.686 23.1702 114.53 23.2676C114.374 23.365 114.161 23.4763 113.892 23.5877C113.623 23.7129 113.353 23.8103 113.056 23.8938C112.772 23.9773 112.418 24.0469 112.021 24.1165C111.624 24.1861 111.199 24.2139 110.774 24.2139C110.164 24.2139 109.611 24.1165 109.129 23.9217C108.647 23.7268 108.251 23.4763 107.939 23.1702C107.627 22.864 107.372 22.5022 107.173 22.0987C106.975 21.6812 106.833 21.2637 106.748 20.8462C106.663 20.4287 106.635 19.9834 106.635 19.5381C106.635 18.9815 106.734 18.4526 106.946 17.9656C107.145 17.4785 107.457 17.0332 107.854 16.6157C108.251 16.2122 108.789 15.8921 109.455 15.6555C110.122 15.4189 110.887 15.3076 111.752 15.3076C112.234 15.3076 112.687 15.3633 113.098 15.4885C113.509 15.6138 113.849 15.7529 114.133 15.9478C114.402 16.1426 114.643 16.3513 114.856 16.5879C115.068 16.8245 115.224 17.061 115.352 17.2837C115.48 17.5064 115.565 17.729 115.65 17.9238C115.735 18.1187 115.777 18.2717 115.806 18.397L115.834 18.5779L110.065 21.6533L110.037 21.6394ZM110.448 17.9656C109.781 18.397 109.399 18.9675 109.285 19.6633C109.285 19.7051 109.271 19.7329 109.271 19.7468L112.942 18.1465C112.942 18.1465 112.886 18.1187 112.857 18.0908C112.829 18.063 112.758 18.0352 112.645 17.9795C112.531 17.9238 112.432 17.8821 112.319 17.8403C112.205 17.7986 112.063 17.7708 111.908 17.729C111.752 17.6873 111.596 17.6733 111.44 17.6733C111.284 17.6733 111.128 17.6873 110.944 17.729C110.774 17.7708 110.603 17.8403 110.448 17.9517V17.9656Z" fill="#151614"/>
<path d="M131.681 15.2937C131.936 15.2937 132.205 15.3215 132.475 15.3911C132.744 15.4607 133.027 15.572 133.354 15.739C133.68 15.906 133.963 16.1287 134.218 16.4209C134.473 16.6992 134.714 17.061 134.955 17.4924C135.196 17.9238 135.366 18.4526 135.48 19.051C135.593 19.6633 135.664 20.3731 135.706 21.1802C135.735 21.9873 135.678 22.9058 135.536 23.9356L132.716 24.1582L132.914 22.4326C133.127 19.5799 132.772 18.0073 131.837 17.729C131.681 17.6873 131.511 17.6733 131.327 17.7012C130.845 17.7847 130.448 17.9517 130.136 18.2022C130.632 19.6633 130.731 21.5698 130.405 23.9495L127.599 24.1722L127.783 22.4466C127.996 19.5938 127.641 18.0213 126.706 17.7429C126.564 17.6873 126.394 17.6733 126.195 17.7151C125.841 17.7708 125.529 17.8821 125.246 18.0491L125.076 23.9495L122.864 24.1861L122.425 15.5581L125.331 15.3215V15.5999C125.728 15.405 126.153 15.3215 126.55 15.3215C127.542 15.3215 128.392 15.7112 129.101 16.4766C129.937 15.7112 130.802 15.3215 131.667 15.3215L131.681 15.2937Z" fill="#151614"/>
<path d="M137.932 16.5879C138.825 15.7251 139.916 15.2798 141.178 15.2798C142.439 15.2798 143.531 15.7112 144.424 16.5879C145.317 17.4507 145.77 18.5083 145.77 19.7329C145.77 20.9575 145.317 22.0012 144.424 22.864C143.531 23.7268 142.439 24.1582 141.178 24.1582C139.916 24.1582 138.825 23.7268 137.932 22.864C137.039 22.0012 136.585 20.9575 136.585 19.7329C136.585 18.5083 137.039 17.4646 137.932 16.5879ZM139.661 21.4029C140.044 21.8482 140.497 22.0569 141.05 22.0569C141.603 22.0569 142.057 21.8343 142.439 21.4029C142.822 20.9575 143.021 20.4426 143.021 19.8303C143.021 19.4129 142.935 19.0371 142.751 18.6892C142.567 18.3413 142.34 18.0769 142.028 17.8682C141.716 17.6594 141.39 17.562 141.036 17.562C140.497 17.562 140.03 17.7847 139.647 18.2161C139.264 18.6614 139.08 19.1902 139.08 19.8025C139.08 20.4148 139.264 20.9436 139.647 21.3889L139.661 21.4029Z" fill="#151614"/>
<path d="M151.965 15.2937C152.22 15.2937 152.489 15.3215 152.758 15.3911C153.028 15.4607 153.311 15.572 153.637 15.739C153.963 15.906 154.247 16.1287 154.502 16.4209C154.757 16.6992 154.998 17.061 155.239 17.4924C155.48 17.9238 155.65 18.4526 155.763 19.051C155.877 19.6633 155.948 20.3731 155.99 21.1802C156.033 21.9873 155.976 22.9058 155.806 23.9356L152.999 24.1582L153.184 22.4326C153.396 19.5799 153.042 18.0073 152.106 17.729C151.95 17.6733 151.78 17.6594 151.596 17.7012C151.185 17.7708 150.831 17.896 150.547 18.0908C150.264 18.2857 150.037 18.5083 149.895 18.7588C149.753 19.0093 149.654 19.2459 149.583 19.4407C149.527 19.6355 149.484 19.8443 149.456 20.0391L149.257 23.9495L147.046 24.1722L146.791 15.3076L149.697 15.5442L149.64 16.24C150.405 15.6138 151.185 15.3076 151.95 15.3076L151.965 15.2937Z" fill="#151614"/>
<path d="M162.978 12.4827L166.111 12.8445L165.53 23.8521L163.318 24.1582V23.5877C162.638 23.9634 161.943 24.1582 161.221 24.1582C160.852 24.1582 160.498 24.1165 160.143 24.0469C159.789 23.9773 159.406 23.8382 159.009 23.6155C158.612 23.4068 158.272 23.1424 157.975 22.8084C157.677 22.4883 157.436 22.0569 157.238 21.5142C157.039 20.9715 156.94 20.3592 156.94 19.6634C156.94 16.7688 158.159 15.3215 160.583 15.3215C161.632 15.3215 162.468 15.6277 163.106 16.24L162.992 12.4688L162.978 12.4827ZM160.058 19.385C160.002 19.7886 160.016 20.1365 160.115 20.4287C160.214 20.721 160.342 20.9436 160.526 21.0828C160.696 21.222 160.909 21.3333 161.15 21.4168C161.391 21.5003 161.632 21.5281 161.858 21.5281C162.085 21.5281 162.312 21.5281 162.539 21.5003C162.766 21.4724 162.936 21.4585 163.035 21.4307C163.148 21.4029 163.205 21.3889 163.233 21.375L163.177 19.2876V18.731C163.177 18.731 163.063 18.6614 162.992 18.6057C162.936 18.5501 162.794 18.4666 162.595 18.3413C162.397 18.2161 162.213 18.1048 162.029 18.0213C161.844 17.9378 161.646 17.8821 161.419 17.8404C161.192 17.8125 160.994 17.8404 160.81 17.896C160.639 17.9656 160.469 18.1326 160.328 18.3692C160.186 18.6057 160.087 18.9397 160.044 19.3572L160.058 19.385Z" fill="#151614"/>
<path d="M173.141 15.3076L176.047 15.4746L175.608 23.9356L173.396 24.1582V23.6851C172.716 23.9356 172.107 24.0887 171.54 24.1722C170.973 24.2557 170.491 24.2417 170.08 24.1722C169.683 24.0887 169.314 23.9634 168.974 23.7825C168.634 23.6016 168.365 23.3929 168.166 23.1284C167.968 22.878 167.783 22.5996 167.627 22.3213C167.472 22.043 167.358 21.7647 167.273 21.5003C167.202 21.2219 167.146 20.9854 167.089 20.7627C167.046 20.5401 167.018 20.3731 167.004 20.2339V20.0391C166.99 19.3433 167.06 18.731 167.188 18.1882C167.33 17.6455 167.5 17.2141 167.727 16.8801C167.953 16.5461 168.223 16.2678 168.535 16.0452C168.846 15.8225 169.172 15.6694 169.484 15.572C169.796 15.4746 170.136 15.4189 170.491 15.3911C170.859 15.3633 171.171 15.3772 171.44 15.3911C171.71 15.4189 171.993 15.4607 172.277 15.5303C172.56 15.5859 172.759 15.6416 172.872 15.6694C172.985 15.6973 173.07 15.7251 173.141 15.7529V15.3076ZM169.98 18.5779C169.824 18.8701 169.711 19.2459 169.669 19.7051C169.626 20.1643 169.654 20.5401 169.768 20.8462C169.881 21.1524 170.037 21.3611 170.236 21.5003C170.434 21.6394 170.675 21.7229 170.973 21.7508C171.27 21.7786 171.525 21.7925 171.766 21.7508C172.007 21.7229 172.263 21.6673 172.546 21.5977C172.815 21.5142 173 21.4585 173.099 21.4307C173.198 21.4029 173.269 21.3611 173.326 21.3333L173.241 18.3413C173.241 18.3413 173.184 18.2996 173.07 18.23C172.957 18.1604 172.801 18.1047 172.603 18.0213C172.404 17.9378 172.192 17.8682 171.951 17.8125C171.71 17.7568 171.483 17.729 171.228 17.7568C170.973 17.7847 170.746 17.8543 170.533 17.9656C170.321 18.0769 170.136 18.2857 169.98 18.5779Z" fill="#151614"/>
<path d="M185.728 15.2937C185.757 15.5999 185.799 15.9895 185.856 16.4627C185.913 16.9358 185.969 17.7012 186.054 18.7588C186.139 19.8164 186.182 20.6096 186.182 21.1384C186.182 24.9654 184.849 26.9275 182.185 26.9971C181.717 26.9971 181.277 26.9554 180.852 26.858C180.427 26.7466 180.073 26.6075 179.761 26.4266C179.449 26.2456 179.165 26.0508 178.91 25.8282C178.655 25.6055 178.443 25.3829 178.272 25.1602C178.102 24.9375 177.961 24.7288 177.847 24.5479C177.734 24.367 177.635 24.2139 177.578 24.1026L177.493 23.9356L179.676 22.7945C179.676 22.7945 179.747 22.9197 179.803 23.0171C179.86 23.1006 179.973 23.2676 180.144 23.4903C180.314 23.7129 180.498 23.9077 180.668 24.0747C180.838 24.2417 181.065 24.3809 181.32 24.5061C181.575 24.6314 181.83 24.6731 182.071 24.6592C182.596 24.5896 182.95 24.2696 183.163 23.7129C183.361 23.1424 183.446 22.3074 183.418 21.1941C183.106 21.4585 182.752 21.6673 182.355 21.8343C181.958 22.0012 181.632 22.0847 181.391 22.0987L181.022 22.1265C180.427 22.1265 179.903 22.0152 179.449 21.7786C178.995 21.5559 178.627 21.2498 178.358 20.888C178.088 20.5261 177.847 20.1087 177.649 19.6633C177.45 19.218 177.309 18.7727 177.238 18.3413C177.167 17.9099 177.096 17.4924 177.053 17.1306C177.011 16.7688 176.997 16.4627 176.997 16.24V15.8921L179.747 15.5442C179.747 15.5442 179.747 15.6973 179.747 15.7808C179.747 15.8782 179.747 16.073 179.747 16.3513C179.747 16.6296 179.747 16.9219 179.775 17.1863C179.803 17.4507 179.846 17.7429 179.917 18.063C179.988 18.3831 180.087 18.6614 180.2 18.884C180.314 19.1067 180.47 19.3154 180.682 19.4685C180.881 19.6216 181.122 19.7051 181.391 19.7051C181.731 19.7051 182.029 19.6494 182.27 19.552C182.511 19.4546 182.695 19.3294 182.808 19.1902C182.922 19.051 183.007 18.898 183.078 18.7171C183.149 18.5361 183.177 18.397 183.191 18.2996C183.191 18.2022 183.191 18.1047 183.191 18.0213C183.12 17.3811 183.021 16.5461 182.879 15.5164L185.742 15.2937H185.728Z" fill="#151614"/>
<path d="M77.9313 32.5078C78.3424 32.0903 78.881 31.8816 79.533 31.8816C80.0717 31.8816 80.5253 32.0208 80.908 32.2991C81.2765 32.5774 81.5033 32.9392 81.56 33.3984L80.9788 33.5098C80.9221 33.1758 80.752 32.9114 80.4969 32.7166C80.2418 32.5217 79.9158 32.4243 79.533 32.4243C79.0511 32.4243 78.6684 32.5774 78.3707 32.8975C78.0872 33.2175 77.9455 33.635 77.9455 34.1499C77.9455 34.6648 78.0872 35.0962 78.3707 35.4024C78.6542 35.7085 79.0369 35.8616 79.5189 35.8616C79.9016 35.8616 80.2276 35.7642 80.5111 35.5693C80.7946 35.3745 80.9647 35.1101 81.0355 34.7901L81.645 34.9014C81.5458 35.3467 81.3049 35.7085 80.9221 35.9868C80.5394 36.2652 80.0717 36.4043 79.533 36.4043C78.881 36.4043 78.3566 36.1956 77.9455 35.792C77.5344 35.3745 77.336 34.8318 77.336 34.1638C77.336 33.4959 77.5344 32.9531 77.9455 32.5356L77.9313 32.5078Z" fill="#151614"/>
<path d="M83.431 32.5356C83.8563 32.1042 84.4091 31.8816 85.0753 31.8816C85.7415 31.8816 86.3084 32.1042 86.7478 32.5356C87.1873 32.967 87.3999 33.5098 87.3999 34.136C87.3999 34.7622 87.1873 35.3049 86.7478 35.7363C86.3084 36.1677 85.7556 36.3765 85.0753 36.3765C84.3949 36.3765 83.8704 36.1677 83.431 35.7363C82.9916 35.3049 82.779 34.7761 82.779 34.136C82.779 33.4959 82.9916 32.967 83.431 32.5356ZM83.8704 35.3467C84.1823 35.6668 84.5791 35.8338 85.0753 35.8338C85.5714 35.8338 85.9682 35.6668 86.2801 35.3467C86.5919 35.0266 86.7478 34.6231 86.7478 34.1221C86.7478 33.6211 86.5919 33.2314 86.2801 32.8975C85.9682 32.5635 85.5572 32.4104 85.0753 32.4104C84.5933 32.4104 84.1823 32.5774 83.8704 32.8975C83.5586 33.2175 83.4027 33.635 83.4027 34.1221C83.4027 34.6091 83.5586 35.0266 83.8704 35.3467Z" fill="#151614"/>
<path d="M88.0519 32.5217V31.9929H89.3276V30.9353C89.3276 30.49 89.4693 30.1282 89.767 29.8499C90.0647 29.5715 90.4474 29.4463 90.9293 29.4463C91.3829 29.4463 91.7372 29.5437 91.9924 29.7246L91.8365 30.2534C91.6239 30.1003 91.3262 30.0168 90.9718 30.0168C90.6458 30.0168 90.3907 30.1143 90.2064 30.2952C90.0221 30.4761 89.9371 30.7405 89.9371 31.0884V31.979H92.7578V30.9353C92.7578 30.49 92.8996 30.1282 93.1972 29.8499C93.4949 29.5715 93.8776 29.4324 94.3737 29.4324C94.8131 29.4324 95.1675 29.5298 95.451 29.7107L95.295 30.2534C95.0683 30.0864 94.7706 30.0029 94.4162 30.0029C94.0902 30.0029 93.8351 30.1003 93.6508 30.2813C93.4665 30.4622 93.3815 30.7405 93.3815 31.0884V31.979H95.2809V32.5078H93.3815V36.2373H92.772V32.5078H89.9513V36.2373H89.3418V32.5078H88.0661L88.0519 32.5217Z" fill="#151614"/>
<path d="M96.4716 32.4939C96.8684 32.0903 97.3929 31.8816 98.0166 31.8816C98.6403 31.8816 99.1222 32.0625 99.4907 32.4243C99.8734 32.7861 100.058 33.2593 100.058 33.8438C100.058 34.0108 100.058 34.1499 100.015 34.2612H96.4574C96.4574 34.7483 96.6133 35.124 96.8968 35.4302C97.1803 35.7224 97.563 35.8755 98.0308 35.8755C98.6828 35.8755 99.1364 35.6389 99.3915 35.1797L99.8734 35.458C99.7033 35.7503 99.4624 35.9729 99.1364 36.1399C98.8104 36.3069 98.4418 36.3904 98.0449 36.3904C97.3929 36.3904 96.8685 36.1817 96.4574 35.7642C96.0605 35.3467 95.8621 34.804 95.8621 34.1221C95.8621 33.4402 96.0605 32.9114 96.4716 32.5078V32.4939ZM96.4716 33.802H99.4482C99.4482 33.3567 99.3065 33.0088 99.0372 32.7583C98.7678 32.5078 98.4276 32.3826 98.0166 32.3826C97.5772 32.3826 97.2228 32.5078 96.9393 32.7722C96.6558 33.0366 96.4999 33.3706 96.4716 33.802Z" fill="#151614"/>
<path d="M101.744 32.4939C102.141 32.0903 102.666 31.8816 103.289 31.8816C103.913 31.8816 104.395 32.0625 104.764 32.4243C105.146 32.7861 105.331 33.2593 105.331 33.8438C105.331 34.0108 105.331 34.1499 105.288 34.2612H101.73C101.73 34.7483 101.886 35.124 102.17 35.4302C102.453 35.7224 102.836 35.8755 103.304 35.8755C103.956 35.8755 104.409 35.6389 104.664 35.1797L105.146 35.458C104.976 35.7503 104.735 35.9729 104.409 36.1399C104.083 36.3069 103.715 36.3904 103.318 36.3904C102.666 36.3904 102.141 36.1817 101.73 35.7642C101.333 35.3467 101.135 34.804 101.135 34.1221C101.135 33.4402 101.333 32.9114 101.744 32.5078V32.4939ZM101.744 33.802H104.721C104.721 33.3567 104.579 33.0088 104.31 32.7583C104.041 32.5078 103.701 32.3826 103.289 32.3826C102.85 32.3826 102.496 32.5078 102.212 32.7722C101.929 33.0366 101.773 33.3706 101.744 33.802Z" fill="#151614"/>
<path d="M109.753 31.9929V32.967C109.852 32.6191 110.022 32.3408 110.278 32.1599C110.533 31.979 110.844 31.8816 111.213 31.8816C111.525 31.8816 111.766 31.9373 111.936 32.0486L111.808 32.6052C111.652 32.5078 111.44 32.4661 111.156 32.4661C110.717 32.4661 110.363 32.6191 110.122 32.9392C109.881 33.2593 109.753 33.7046 109.753 34.2891V36.2652H109.144V32.0068H109.753V31.9929Z" fill="#151614"/>
<path d="M113.183 32.5356C113.609 32.1042 114.161 31.8816 114.828 31.8816C115.494 31.8816 116.061 32.1042 116.5 32.5356C116.94 32.967 117.152 33.5098 117.152 34.136C117.152 34.7622 116.94 35.3049 116.5 35.7363C116.061 36.1677 115.508 36.3765 114.828 36.3765C114.147 36.3765 113.623 36.1677 113.183 35.7363C112.744 35.3049 112.531 34.7761 112.531 34.136C112.531 33.4959 112.744 32.967 113.183 32.5356ZM113.637 35.3467C113.949 35.6668 114.346 35.8338 114.842 35.8338C115.338 35.8338 115.735 35.6668 116.047 35.3467C116.358 35.0266 116.514 34.6231 116.514 34.1221C116.514 33.6211 116.358 33.2314 116.047 32.8975C115.735 32.5635 115.338 32.4104 114.842 32.4104C114.346 32.4104 113.949 32.5774 113.637 32.8975C113.325 33.2175 113.169 33.635 113.169 34.1221C113.169 34.6091 113.325 35.0266 113.637 35.3467Z" fill="#151614"/>
<path d="M118.626 34.2891C118.867 34.0664 119.193 33.9273 119.633 33.8855L120.724 33.7742C121.107 33.7324 121.305 33.5376 121.305 33.1758C121.305 32.9253 121.206 32.7305 120.993 32.5913C120.795 32.4522 120.511 32.3826 120.157 32.3826C119.803 32.3826 119.505 32.4661 119.278 32.6191C119.051 32.7722 118.938 32.9949 118.91 33.2732L118.314 33.134C118.371 32.7444 118.57 32.4382 118.896 32.2156C119.222 31.9929 119.647 31.8816 120.171 31.8816C120.696 31.8816 121.149 32.0068 121.447 32.2573C121.745 32.5078 121.901 32.8418 121.901 33.2871V35.4441C121.901 35.7085 122.014 35.8477 122.241 35.8477C122.34 35.8477 122.411 35.8338 122.482 35.792V36.2652C122.368 36.3208 122.212 36.3487 122.028 36.3487C121.815 36.3487 121.645 36.2791 121.518 36.1538C121.39 36.0286 121.319 35.8477 121.319 35.6389V35.3745C121.206 35.6807 121.008 35.9173 120.71 36.1121C120.412 36.293 120.086 36.3904 119.704 36.3904C119.264 36.3904 118.91 36.2791 118.64 36.0564C118.371 35.8338 118.244 35.5415 118.244 35.1658C118.244 34.8179 118.371 34.5256 118.612 34.303L118.626 34.2891ZM118.881 35.1101C118.881 35.3467 118.966 35.5415 119.137 35.6807C119.307 35.8198 119.548 35.8894 119.845 35.8894C120.242 35.8894 120.596 35.7642 120.88 35.5137C121.163 35.2632 121.305 34.957 121.305 34.6091V34.1638L119.831 34.303C119.207 34.3587 118.881 34.6231 118.881 35.1101Z" fill="#151614"/>
<path d="M123.8 35.0127C123.842 35.2771 123.984 35.4859 124.211 35.6528C124.438 35.8198 124.721 35.8894 125.047 35.8894C125.373 35.8894 125.643 35.8198 125.827 35.6807C126.011 35.5415 126.11 35.3467 126.11 35.1101C126.11 34.7066 125.869 34.47 125.388 34.3865C125.359 34.3865 125.232 34.3587 125.005 34.3308C124.778 34.303 124.622 34.2752 124.523 34.2473C124.14 34.1917 123.842 34.0664 123.644 33.8577C123.446 33.6628 123.346 33.4124 123.346 33.1062C123.346 32.7305 123.488 32.4243 123.786 32.2017C124.083 31.979 124.466 31.8677 124.962 31.8677C125.458 31.8677 125.827 31.979 126.153 32.1877C126.479 32.4104 126.663 32.7026 126.734 33.0645L126.153 33.2036C126.11 32.9253 125.983 32.7026 125.77 32.5496C125.558 32.3965 125.288 32.3269 124.962 32.3269C124.636 32.3269 124.409 32.3965 124.239 32.5217C124.069 32.647 123.984 32.8279 123.984 33.0505C123.984 33.4263 124.225 33.6628 124.693 33.7463C124.764 33.7463 124.891 33.7742 125.104 33.802C125.302 33.8298 125.473 33.8577 125.586 33.8716C126.38 33.9968 126.762 34.3865 126.762 35.0405C126.762 35.4302 126.607 35.7363 126.295 35.9729C125.983 36.2095 125.572 36.3208 125.076 36.3208C124.58 36.3208 124.169 36.2095 123.842 36.0007C123.516 35.792 123.304 35.4859 123.219 35.124L123.8 34.9849V35.0127Z" fill="#151614"/>
<path d="M127.443 31.9929H128.747V30.4622L129.356 30.3787V31.979H131.086V32.5078H129.356V35.0823C129.356 35.5415 129.583 35.7781 130.037 35.7781C130.32 35.7781 130.547 35.6946 130.717 35.5415L130.916 36.0286C130.717 36.2373 130.391 36.3347 129.937 36.3347C129.555 36.3347 129.257 36.2234 129.045 36.0147C128.832 35.8059 128.733 35.5137 128.733 35.138V32.5078H127.429V31.979L127.443 31.9929Z" fill="#151614"/>
<path d="M132.446 32.4939C132.843 32.0903 133.368 31.8816 133.991 31.8816C134.615 31.8816 135.097 32.0625 135.466 32.4243C135.848 32.7861 136.033 33.2593 136.033 33.8438C136.033 34.0108 136.033 34.1499 135.99 34.2612H132.432C132.432 34.7483 132.588 35.124 132.872 35.4302C133.155 35.7224 133.538 35.8755 134.006 35.8755C134.658 35.8755 135.111 35.6389 135.366 35.1797L135.848 35.458C135.678 35.7503 135.437 35.9729 135.111 36.1399C134.785 36.3069 134.417 36.3904 134.02 36.3904C133.368 36.3904 132.843 36.1817 132.432 35.7642C132.035 35.3467 131.837 34.804 131.837 34.1221C131.837 33.4402 132.035 32.9114 132.446 32.5078V32.4939ZM132.446 33.802H135.423C135.423 33.3567 135.281 33.0088 135.012 32.7583C134.743 32.5078 134.402 32.3826 133.991 32.3826C133.552 32.3826 133.198 32.5078 132.914 32.7722C132.631 33.0366 132.475 33.3706 132.446 33.802Z" fill="#151614"/>
<path d="M138.088 31.9929V32.967C138.187 32.6191 138.357 32.3408 138.612 32.1599C138.867 31.979 139.179 31.8816 139.548 31.8816C139.86 31.8816 140.101 31.9373 140.271 32.0486L140.143 32.6052C139.987 32.5078 139.775 32.4661 139.491 32.4661C139.052 32.4661 138.697 32.6191 138.456 32.9392C138.215 33.2593 138.088 33.7046 138.088 34.2891V36.2652H137.478V32.0068H138.088V31.9929Z" fill="#151614"/>
<path d="M141.49 35.0127C141.532 35.2771 141.674 35.4859 141.901 35.6528C142.128 35.8198 142.411 35.8894 142.737 35.8894C143.063 35.8894 143.332 35.8198 143.517 35.6807C143.715 35.5415 143.8 35.3467 143.8 35.1101C143.8 34.7066 143.559 34.47 143.077 34.3865C143.049 34.3865 142.921 34.3587 142.695 34.3308C142.468 34.303 142.312 34.2752 142.213 34.2473C141.83 34.1917 141.532 34.0664 141.334 33.8577C141.135 33.6628 141.036 33.4124 141.036 33.1062C141.036 32.7305 141.178 32.4243 141.476 32.2017C141.773 31.979 142.156 31.8677 142.652 31.8677C143.148 31.8677 143.517 31.979 143.843 32.1877C144.169 32.4104 144.353 32.7026 144.424 33.0645L143.843 33.2036C143.8 32.9253 143.673 32.7026 143.46 32.5496C143.247 32.3965 142.978 32.3269 142.652 32.3269C142.326 32.3269 142.099 32.3965 141.929 32.5217C141.759 32.647 141.674 32.8279 141.674 33.0505C141.674 33.4263 141.915 33.6628 142.383 33.7463C142.454 33.7463 142.581 33.7742 142.794 33.802C142.992 33.8298 143.162 33.8577 143.276 33.8716C144.055 33.9968 144.452 34.3865 144.452 35.0405C144.452 35.4302 144.296 35.7363 143.984 35.9729C143.673 36.2095 143.276 36.3208 142.765 36.3208C142.255 36.3208 141.858 36.2095 141.532 36.0007C141.192 35.7781 140.994 35.4859 140.909 35.124L141.49 34.9849V35.0127Z" fill="#151614"/>
<path d="M77.6904 49.4436V42.7639H78.2999V46.1873C78.4133 45.8533 78.6259 45.5889 78.9235 45.3801C79.2212 45.1714 79.5756 45.074 79.9725 45.074C80.5678 45.074 81.0497 45.2827 81.4466 45.6863C81.8435 46.1038 82.0419 46.6465 82.0419 47.3145C82.0419 47.9824 81.8577 48.5113 81.4608 48.9287C81.0781 49.3462 80.582 49.5689 79.9866 49.5689C79.5897 49.5689 79.2354 49.4575 78.9235 49.2488C78.6117 49.0401 78.3991 48.7617 78.2857 48.4138V49.4575H77.6904V49.4436ZM78.7251 48.553C79.0086 48.8592 79.3771 49.0261 79.8449 49.0261C80.3126 49.0261 80.6954 48.8731 80.9788 48.553C81.2623 48.2468 81.4041 47.8294 81.4041 47.3145C81.4041 46.7996 81.2623 46.396 80.9788 46.0759C80.6954 45.7559 80.3268 45.6028 79.8591 45.6028C79.3913 45.6028 79.0086 45.7559 78.7251 46.0759C78.4416 46.396 78.2999 46.7996 78.2999 47.3145C78.2999 47.8294 78.4416 48.2468 78.7251 48.553Z" fill="#151614"/>
<path d="M82.6798 45.1853H83.3744L85.1036 48.1912L86.7762 45.1853H87.485L84.0122 51.364H83.3177L84.7635 48.7896L82.6798 45.1992V45.1853Z" fill="#151614"/>
<path d="M91.5955 44.0024C92.205 43.4041 92.9846 43.0979 93.9485 43.0979C94.7706 43.0979 95.4651 43.3066 96.0321 43.7241C96.5849 44.1416 96.9109 44.6843 96.996 45.3662L96.3156 45.4775C96.2447 44.9487 95.9896 44.5313 95.5644 44.1973C95.1391 43.8633 94.6005 43.7102 93.9626 43.7102C93.1972 43.7102 92.5735 43.9468 92.0916 44.4338C91.6097 44.9209 91.3829 45.5471 91.3829 46.3403C91.3829 47.1336 91.6239 47.7737 92.0916 48.2608C92.5594 48.7478 93.183 48.9844 93.9485 48.9844C94.5863 48.9844 95.1391 48.8174 95.5927 48.4973C96.0463 48.1633 96.3298 47.7459 96.429 47.2031L97.1094 47.3145C96.9818 47.9964 96.6274 48.5391 96.0463 48.9566C95.4651 49.374 94.7706 49.5828 93.9485 49.5828C92.9704 49.5828 92.1908 49.2906 91.5955 48.6922C91.0002 48.1077 90.7025 47.3284 90.7025 46.3682C90.7025 45.408 91.0002 44.6148 91.6097 44.0164L91.5955 44.0024Z" fill="#151614"/>
<path d="M98.1583 47.6206L98.7962 47.5093V47.565C98.7962 47.9685 98.9379 48.3164 99.2073 48.5808C99.4766 48.8592 99.8593 48.9844 100.327 48.9844C100.795 48.9844 101.149 48.8452 101.447 48.5808C101.744 48.3025 101.886 47.9546 101.886 47.5093C101.886 47.064 101.744 46.7161 101.461 46.4517C101.178 46.1873 100.809 46.0481 100.37 46.0481C100.072 46.0481 99.8026 46.1038 99.5475 46.229C99.2923 46.3543 99.108 46.5073 98.9805 46.7022L98.3993 46.6048L98.7112 43.2092H102.311V43.7659H99.2214L99.0088 46.0203C99.3774 45.6863 99.8451 45.5193 100.412 45.5193C101.022 45.5193 101.532 45.7002 101.915 46.0759C102.297 46.4517 102.496 46.9248 102.496 47.5232C102.496 48.1216 102.283 48.6226 101.872 48.9844C101.461 49.3601 100.922 49.541 100.285 49.541C99.6467 49.541 99.1222 49.3601 98.7395 49.0122C98.3568 48.6643 98.1442 48.1912 98.13 47.6206H98.1583Z" fill="#151614"/>
<path d="M104.622 44.0024C105.231 43.4041 106.011 43.0979 106.975 43.0979C107.797 43.0979 108.492 43.3066 109.058 43.7241C109.611 44.1416 109.937 44.6843 110.022 45.3662L109.342 45.4775C109.271 44.9487 109.016 44.5313 108.591 44.1973C108.165 43.8772 107.627 43.7102 106.989 43.7102C106.224 43.7102 105.6 43.9468 105.118 44.4338C104.636 44.9209 104.409 45.5471 104.409 46.3403C104.409 47.1336 104.65 47.7737 105.118 48.2608C105.586 48.7478 106.209 48.9844 106.975 48.9844C107.613 48.9844 108.165 48.8174 108.619 48.4973C109.073 48.1633 109.356 47.7459 109.455 47.2031L110.136 47.3145C110.008 47.9964 109.654 48.5391 109.073 48.9566C108.492 49.374 107.797 49.5828 106.975 49.5828C105.997 49.5828 105.217 49.2906 104.622 48.6922C104.027 48.1077 103.729 47.3284 103.729 46.3682C103.729 45.408 104.027 44.6148 104.636 44.0164L104.622 44.0024Z" fill="#151614"/>
<path d="M111.071 46.3264C111.071 45.3662 111.383 44.6008 111.993 43.9885C112.602 43.3901 113.396 43.084 114.374 43.084C115.352 43.084 116.132 43.3901 116.755 43.9885C117.379 44.5869 117.677 45.3662 117.677 46.3264C117.677 47.2866 117.365 48.0659 116.755 48.6643C116.146 49.2627 115.352 49.5689 114.374 49.5689C113.396 49.5689 112.602 49.2627 111.993 48.6643C111.383 48.0659 111.071 47.2866 111.071 46.3403V46.3264ZM112.475 48.2329C112.956 48.72 113.58 48.9566 114.374 48.9566C115.168 48.9566 115.791 48.72 116.259 48.2329C116.741 47.7459 116.982 47.1196 116.982 46.3264C116.982 45.5332 116.741 44.907 116.259 44.4199C115.777 43.9329 115.154 43.6963 114.374 43.6963C113.594 43.6963 112.956 43.9329 112.475 44.4199C111.993 44.907 111.752 45.5471 111.752 46.3264C111.752 47.1057 111.993 47.7459 112.475 48.2329Z" fill="#151614"/>
<path d="M124.183 43.2092V43.7798H119.916V45.9785H122.836V46.5352H119.916V49.4575H119.278V43.2092H124.183Z" fill="#151614"/>
<path d="M130.575 43.2092V43.7798H126.309V45.9785H129.229V46.5352H126.309V49.4575H125.671V43.2092H130.575Z" fill="#151614"/>
<path d="M132.064 43.2092H137.039V43.7798H132.687V46.0481H135.749V46.5908H132.687V48.8731H137.138V49.4436H132.049V43.1953L132.064 43.2092Z" fill="#151614"/>
<path d="M138.726 43.2092H143.701V43.7798H139.349V46.0481H142.411V46.5908H139.349V48.8731H143.8V49.4436H138.711V43.1953L138.726 43.2092Z" fill="#151614"/>
<path d="M69.0723 39.0207C69.1573 38.6172 68.7037 38.5337 68.6329 38.2136C68.4203 37.2395 67.6974 36.6272 66.9178 36.0844C66.6768 35.9174 66.5918 35.5 66.1665 35.5835C66.1949 35.333 65.9964 35.2773 65.8263 35.1521C64.8908 34.4562 63.8277 33.9274 62.9347 33.176C62.8213 33.0786 62.7079 33.0229 62.7505 32.8142C62.8922 31.9931 62.793 31.1721 62.8355 30.351C62.878 29.53 62.2827 28.8063 62.5095 27.9574C62.5095 27.9435 62.5095 27.9157 62.5095 27.9018C62.1835 27.4286 62.3111 26.872 62.1835 26.371C62.0701 25.87 62.0701 25.2856 61.6732 24.8959C61.3614 24.5898 61.3047 24.1444 61.3188 23.8661C61.3472 23.393 61.1487 23.0172 61.0495 22.6137C60.9503 22.1962 60.4967 21.8483 60.4684 21.5143C60.4117 20.6237 59.8163 20.0114 59.5045 19.2599C59.1927 18.4945 58.7107 17.8126 58.1579 17.1725C57.9028 16.8942 57.5626 16.588 57.6476 16.1149C57.7043 15.8505 57.9028 15.6139 57.7327 15.3217C58.2855 15.2242 58.2288 14.7511 58.328 14.3754C58.5406 13.5682 58.4698 12.7333 58.7391 11.9122C58.9517 11.2303 58.6682 10.4789 58.81 9.75523C58.8525 9.54649 59.0509 9.37949 58.9517 9.11509C58.6824 8.40537 58.98 7.66782 58.8667 6.93026C58.7533 6.22055 58.7816 5.46908 58.5973 4.74544C58.4981 4.35579 58.4556 3.99397 58.1721 3.61824C57.9878 3.36775 58.1296 2.72761 57.8036 2.47712C57.4209 2.1988 57.3642 1.79524 57.1515 1.46125C56.9956 1.23859 56.6413 1.26642 56.5279 0.960271C56.4003 0.61237 56.0176 0.487125 55.6774 0.459293C55.3514 0.431461 55.0679 0.320132 54.7844 0.194888C54.5576 0.0974752 54.2599 -0.0695176 54.0473 0.111391C53.778 0.334048 53.5087 0.264468 53.2394 0.22272C52.8708 0.180972 52.5165 0.125307 52.2897 0.528873C52.233 0.626286 52.0771 0.640202 51.992 0.695866C51.666 0.918523 51.2691 0.668034 50.9289 0.904607C50.4612 1.23859 49.9226 1.48908 49.469 1.87873C49.0296 2.25447 48.576 2.61628 48.1507 3.01985C47.768 3.38167 47.5271 3.85481 47.0735 4.1888C46.7475 4.42537 46.2939 4.77327 46.3222 5.32992C46.3222 5.38558 46.223 5.46908 46.1521 5.49691C45.7553 5.63607 45.5993 5.97006 45.3725 6.27621C45.0891 6.65194 44.919 7.09726 44.6355 7.48691C44.3095 7.94614 43.9409 8.41928 43.8134 9.00376C43.133 8.61411 42.481 8.18271 41.7439 8.04355C41.1486 7.93222 40.6524 7.45907 40.0004 7.63998C39.9721 7.63998 39.9154 7.62607 39.9154 7.59824C39.7169 6.97201 39.1499 7.15292 38.7105 7.11117C38.4554 7.08334 38.257 7.02768 38.1436 6.7911C38.0302 6.55453 37.9451 6.31796 37.9593 6.03964C37.9876 5.44125 37.5624 4.99593 37.364 4.48104C37.2222 4.13314 36.882 4.52279 36.7545 4.41146C36.3009 4.04964 36.1024 4.43929 35.8756 4.66195C35.6347 4.89852 35.4221 5.16292 35.252 5.44125C35.0961 5.67782 34.9827 5.60824 34.7984 5.49691C34.5007 5.30208 34.5291 4.99593 34.4298 4.71761C34.3448 4.43929 33.1116 4.2723 32.8565 4.43929C32.006 4.99593 31.2831 5.70565 30.4893 6.33187C30.0499 6.67978 29.6389 7.09726 28.9727 6.84677C28.9018 6.81894 28.8026 6.88852 28.7175 6.84677C28.3348 6.72152 28.1647 7.15292 27.7962 7.13901C26.7756 7.08334 25.8685 7.5704 24.9329 7.86264C24.7487 7.91831 24.5502 8.0018 24.4227 8.25229C24.3518 8.40537 24.0258 8.66977 23.8415 8.25229C23.558 7.59824 23.0477 7.06943 22.7359 6.42929C22.5233 5.99789 22.2823 5.55257 21.7579 5.37167C21.7012 5.35775 21.6445 5.27425 21.6303 5.21859C21.3184 4.42537 21.1625 4.24446 20.468 3.89656C20.3971 3.85481 20.3829 3.79915 20.3829 3.72957C20.3829 3.43733 20.1561 3.28426 19.986 3.10335C19.5466 2.64412 19.0931 2.21272 18.5686 1.8509C17.8457 1.36384 17.2362 0.668034 16.244 0.695866C16.1164 0.695866 15.8329 0.668034 15.7195 0.473209C15.4927 0.055727 15.1242 0.0835591 14.7273 0.167056C14.4863 0.208804 14.217 0.264468 14.0469 0.111391C13.806 -0.0973498 13.6075 0.0139788 13.3807 0.055727C13.1965 0.0835591 13.0831 0.264468 12.8705 0.264468C12.0342 0.264468 11.453 0.821111 10.9427 1.32209C10.6025 1.65607 10.4324 2.17097 10.1064 2.56062C9.76625 2.96419 9.76625 3.53474 9.59615 4.02181C9.27014 4.92635 9.21344 5.91439 9.14257 6.88852C9.08587 7.61215 9.34101 8.36362 9.0717 9.07334C9.02917 9.19858 9.1284 9.35166 9.1284 9.44907C9.1284 9.79698 9.46858 10.1449 9.31266 10.3954C9.00082 10.9242 9.21344 11.453 9.31266 11.8983C9.42606 12.4689 9.42606 13.0533 9.58198 13.5961C9.7379 14.1666 9.49693 14.932 10.3191 15.2242C10.3757 15.2382 10.3616 15.2521 10.3191 15.2799C10.0923 15.4886 10.3616 15.6974 10.3191 15.8783C10.2624 16.1566 10.56 16.3932 10.4466 16.5602C10.0639 17.1029 9.80877 17.7291 9.42606 18.2301C8.97248 18.8424 8.85908 19.58 8.41967 20.1784C8.20705 20.4706 8.10783 20.8185 8.06531 21.2221C8.05113 21.4447 7.71095 21.7091 7.65425 22.0292C7.49833 22.8642 7.07309 23.6295 6.86048 24.4506C6.64786 25.2299 6.36437 26.0092 6.22263 26.7885C6.02418 27.9435 5.71234 29.0846 5.65565 30.2814C5.6273 31.0051 5.49973 31.7426 5.47138 32.4941C5.47138 32.7863 5.49973 33.0646 5.25876 33.3847C4.55004 34.3449 3.52947 34.9711 2.77823 35.8896C2.70735 35.9731 2.57978 36.0427 2.48056 36.0705C2.05533 36.1958 1.82854 36.5158 1.57339 36.8359C1.36078 37.1003 1.37495 37.5039 1.04894 37.6709C0.0567253 38.1718 -0.325986 39.2434 0.184296 40.1618C0.311866 40.3845 0.935543 40.5654 1.03476 40.3706C1.21903 40.0366 1.47417 40.1479 1.74349 40.134C2.14037 40.1201 2.53726 40.4123 2.89162 40.1897C3.16094 40.0366 3.28851 40.134 3.52947 40.2036C4.08228 40.3567 3.55782 40.5793 3.61452 40.7463C3.74209 41.136 3.5153 41.289 3.21763 41.4421C3.03337 41.5395 2.7924 41.7204 3.00502 42.0127C3.04754 42.0683 3.03337 42.1518 2.96249 42.1936C2.56561 42.4023 2.52309 42.8476 2.31047 43.1677C1.89941 43.7661 2.09785 44.448 1.84271 45.0464C1.78601 45.1716 1.87106 45.3247 1.98445 45.4499C2.50891 46.104 2.96249 46.271 3.74209 45.937C4.57839 45.5752 5.38633 45.1716 6.19428 44.7681C6.33602 44.6985 6.47777 44.615 6.63369 44.6846C6.73291 44.7402 6.73291 44.8655 6.69038 44.9629C6.54864 45.2551 6.26515 45.5195 6.60534 45.8674C6.67621 45.937 6.52029 46.0344 6.44942 46.104C5.93914 46.5911 5.99583 47.5513 6.59116 47.9966C6.67621 48.0662 6.70456 48.094 6.66203 48.1914C6.56281 48.4697 6.80378 48.5254 6.94552 48.6506C7.28571 48.9846 7.58338 48.4558 7.7393 48.5532C8.10783 48.762 8.44802 48.6924 8.70316 48.5115C9.04335 48.2749 9.39771 48.1914 9.78042 48.1357C10.0072 48.1079 10.1631 48.0105 10.2907 47.8296C10.56 47.426 11.0703 47.6348 11.4247 47.426C11.453 47.4121 11.5239 47.4539 11.5664 47.4678C11.368 47.8435 11.7648 48.1636 11.6373 48.5532C11.5381 48.8872 11.4247 49.2769 11.5948 49.5691C11.7365 49.8196 11.7223 49.9309 11.5948 50.1397C11.4955 50.2927 11.453 50.5015 11.453 50.6685C11.453 51.2251 11.694 51.7957 11.368 52.3384C11.3396 52.3801 11.3538 52.4358 11.368 52.4915C11.453 52.8255 11.4672 53.1455 11.212 53.4238C11.1553 53.4934 11.127 53.5769 11.1695 53.7022C11.4247 54.2588 11.7648 54.6902 12.3885 54.8711C12.7996 54.9964 13.2106 55.1355 13.5934 55.3025C14.1603 55.553 14.7698 55.6365 15.351 55.8174C16.2723 56.0957 17.137 56.5689 18.1575 56.4158C18.2709 56.4019 18.3985 56.4158 18.4269 56.4993C18.5119 56.7498 18.7387 56.7776 18.923 56.7915C19.6742 56.8611 20.3829 57.0003 21.1058 57.2229C22.1973 57.5708 23.3738 57.4317 24.4935 57.7239C24.6778 57.7796 24.8621 57.7239 25.0463 57.6265C25.1597 57.5569 25.3015 57.5152 25.4432 57.5987C26.0244 57.9605 26.6764 58.044 27.3568 58.0022C27.6544 57.9883 27.7962 58.0022 27.7962 58.3501C27.7962 59.7139 28.4199 60.855 29.1711 61.9683C29.6814 62.7337 30.7161 62.6919 31.1839 63.4434C31.1839 63.4434 31.2122 63.4712 31.2264 63.4712C31.765 63.4434 32.2186 63.7357 32.6864 63.8331C33.8912 64.0696 35.1102 63.9722 36.1166 63.0955C36.23 62.9981 36.3576 62.9703 36.4993 62.9981C36.6269 63.0259 36.7403 63.0259 36.8395 62.9424C37.5057 62.344 38.2711 61.8013 38.6255 60.9524C38.8523 60.4097 38.8806 59.7974 39.3059 59.2964C39.476 59.0877 39.3342 58.698 39.476 58.4197C40.128 58.6563 40.7517 58.3362 41.4179 58.3919C42.3959 58.4754 43.3739 58.1414 44.3803 58.1136C44.9898 58.0857 45.6702 57.8213 46.2372 57.8213C47.0877 57.8213 47.8389 57.5152 48.661 57.4734C49.1288 57.4595 49.4548 56.9864 50.0643 57.1116C50.3478 57.1673 50.8722 57.0003 51.2691 56.875C52.9134 56.3184 54.5718 55.7617 56.0601 54.8294C56.6129 54.4815 56.7688 54.0779 56.8964 53.5213C57.0948 52.7002 56.7263 51.8931 56.9248 51.0999C56.9673 50.9607 56.9673 50.6824 56.9248 50.6685C56.3152 50.418 56.6838 50.1257 56.8397 49.8057C56.8964 49.6804 56.8539 49.4995 56.8539 49.3464C56.8539 48.762 56.8539 48.1914 56.8539 47.6348C57.6902 47.6348 58.1863 48.2471 58.8525 48.5254C59.1501 48.6506 59.5045 48.4697 59.6604 48.6506C59.9864 48.9985 60.3408 49.1377 60.7944 49.2351C61.1771 49.3186 61.5456 49.3047 61.9142 49.2769C62.2827 49.249 62.4103 48.929 62.6371 48.6367C63.0056 48.1497 62.8072 47.7878 62.7079 47.3843C62.6087 46.9111 62.4103 46.438 62.2402 45.9788C62.1551 45.7561 62.2969 45.5473 62.3536 45.3664C62.3819 45.2551 62.6371 45.4778 62.793 45.5195C63.3883 45.6726 63.8702 46.0205 64.4089 46.2849C64.6924 46.4241 64.9617 46.5354 65.2735 46.3267C65.3586 46.271 65.6137 46.1597 65.7555 46.3823C65.9681 46.7024 66.2657 46.6328 66.535 46.4797C66.9036 46.2571 67.4422 46.104 67.3997 45.5891C67.3146 44.5315 67.2863 43.4321 66.535 42.5554C66.2374 42.2075 66.0815 41.7344 65.6846 41.4839C65.4294 41.3308 65.316 41.1499 65.2593 40.8994C65.3019 40.8576 65.3302 40.8159 65.3727 40.7741C65.8689 40.7602 66.3366 40.8994 66.8185 40.9829C67.584 41.136 68.2502 40.9411 68.4061 40.4123C68.5337 39.967 68.6329 39.5634 69.0581 39.313C69.1573 39.2573 69.0439 39.0764 69.0581 38.979L69.0723 39.0207ZM35.3795 61.523C34.0046 62.2049 32.658 62.024 31.3682 61.2725C31.1555 61.1473 30.9429 60.9664 30.6594 61.189C30.5886 60.8968 30.6878 60.5767 30.2767 60.4654C30.0925 60.4236 30.1917 60.0896 30.0925 59.8948C29.6105 58.8929 29.483 57.8909 29.894 56.8055C30.0358 56.4436 30.4185 56.1375 30.3334 55.6922C30.3334 55.6782 30.3618 55.6365 30.3901 55.6226C31.3682 55.2051 32.1619 54.3423 33.3384 54.3841C33.4235 54.3841 33.5369 54.398 33.5936 54.3562C34.033 54.0222 34.2031 54.2031 34.3023 54.6624C34.359 54.9268 34.5999 54.8711 34.77 54.8015C35.0252 54.7041 35.1953 54.7737 35.4362 54.885C37.0805 55.6643 37.5199 57.0699 37.4632 58.6702C37.4065 60.0061 36.5844 60.9385 35.3937 61.5369L35.3795 61.523ZM55.0821 52.1853C55.1388 52.6306 55.1246 52.9229 54.6285 53.1734C53.8914 53.5352 53.2252 54.0222 52.4173 54.231C51.6944 54.4119 51.014 54.732 50.3336 55.0103C49.8517 55.219 49.4123 55.1355 48.9587 55.2329C48.5193 55.3303 48.25 55.7757 47.7113 55.7339C47.2436 55.7061 46.7758 55.8452 46.2939 55.7896C46.2372 55.7896 46.1663 55.7478 46.138 55.7757C45.6135 56.3601 44.8764 55.887 44.2953 56.1514C43.7708 56.3741 43.2322 56.1375 42.7077 56.2488C41.7297 56.4575 40.7233 56.4297 39.7453 56.555C39.4193 56.5967 39.1783 56.4993 38.9799 56.1236C38.668 55.5391 38.4696 54.8155 37.7183 54.5232C37.6616 54.4954 37.5624 54.4397 37.5624 54.398C37.5908 53.7161 36.9387 53.5769 36.556 53.2708C36.0316 52.8394 35.3512 52.6863 34.7133 52.6167C34.5007 52.5889 34.2881 52.4776 34.0613 52.5054C34.0046 52.5054 33.9479 52.4358 33.877 52.408C33.5085 52.241 33.4235 53.0481 32.9132 52.6446C32.6155 52.4219 32.2186 52.7698 31.8643 52.8533C31.4674 52.9368 31.113 53.0342 30.7728 53.2708C30.4185 53.5213 30.0499 53.7857 29.7239 54.0501C29.1711 54.5093 28.5758 55.0381 28.4907 55.8731C28.4482 56.3045 28.0939 56.4715 27.6403 56.4436C26.3929 56.3462 25.1881 55.9009 23.9266 56.0957C23.6998 56.1236 23.6289 55.887 23.4304 55.8731C23.0336 55.8452 22.6509 55.72 22.254 55.8592C22.013 55.9287 21.7579 55.9148 21.5452 55.7896C20.6806 55.2608 19.6459 55.386 18.7529 55.0381C17.9307 54.718 17.0661 54.8015 16.2298 54.4815C15.6345 54.2449 15.0108 53.9805 14.373 53.8274C14.1036 53.7578 13.8485 53.6743 13.565 53.8692C13.4516 53.396 13.6784 52.9229 13.2957 52.5611C13.2532 52.5193 13.2248 52.3523 13.2957 52.2271C13.6359 51.7678 13.565 51.2808 13.3807 50.7937C13.324 50.6545 13.324 50.5293 13.3807 50.4041C13.4091 50.3206 13.48 50.2092 13.4516 50.1675C13.2532 49.8752 13.3807 49.6248 13.4091 49.3325C13.4516 48.9011 13.5508 48.428 13.4374 47.9827C13.3524 47.6904 13.3666 47.6765 13.6784 47.7461C14.3163 47.8853 14.8549 48.0801 15.2801 48.6228C15.4644 48.8594 15.8754 48.9568 16.1873 49.0681C17.1512 49.3743 18.0158 49.9587 19.0789 49.9587C19.4191 49.9587 19.6884 50.2371 20.0286 50.3066C21.7437 50.6963 23.4446 51.1834 25.2023 51.3782C25.8543 51.4478 26.4921 51.5173 27.1583 51.5034C27.541 51.5034 28.0513 51.5313 28.4482 51.6843C29.2845 52.0183 30.1492 51.8235 30.9996 51.9348C31.7367 52.0322 32.4879 51.9348 33.2392 52.0183C34.0613 52.1018 34.8834 52.0462 35.7056 51.907C35.9607 51.8652 36.2442 51.8792 36.5135 51.9209C37.2931 52.0601 38.0727 51.9905 38.8239 51.7678C39.32 51.6148 39.8303 51.7261 40.3406 51.5452C40.539 51.4756 41.021 51.5452 41.3612 51.6287C41.588 51.6704 41.8006 51.6843 42.0274 51.6287C43.2038 51.2947 44.4796 51.4617 45.6135 50.9329C46.2797 51.1694 46.8325 50.6963 47.4562 50.6267C48.0373 50.5571 48.576 50.2371 49.143 50.0562C49.3981 49.9727 49.7241 50.1397 49.9651 49.917C50.3194 49.583 50.7589 49.4578 51.2408 49.4578C51.4392 49.4578 51.4534 49.3186 51.4959 49.1934C51.6093 48.8594 51.8503 48.7759 52.1763 48.9011C52.6441 49.0959 52.9842 48.8315 53.2394 48.5254C53.3953 48.3445 53.5087 48.2192 53.7638 48.2053C54.1466 48.1775 54.43 47.9409 54.671 47.6626C54.7702 47.5513 54.7844 47.3704 54.997 47.4121C55.2522 47.4539 55.1529 47.6765 55.1246 47.7739C54.9545 48.261 55.2947 48.6785 55.2947 49.1516C55.2805 49.7222 55.0112 50.2371 55.0821 50.8215C55.1388 51.2947 55.0254 51.7957 55.0821 52.2688V52.1853ZM65.6988 38.6728C65.6421 38.7563 65.5712 38.7146 65.5145 38.6172C65.1885 38.0883 64.4514 38.0327 64.0687 38.5197C63.9128 38.7146 63.7852 38.5754 63.6576 38.5197C63.4592 38.4362 63.2607 38.2136 63.0765 38.4919C62.9064 38.7424 62.5945 39.0068 62.9064 39.3408C63.034 39.4799 62.9489 39.5356 62.8639 39.633C62.6371 39.9253 62.4953 40.2036 62.9064 40.4958C63.1332 40.6628 63.0907 40.969 63.2324 41.2055C63.686 41.9709 64.1254 42.7502 64.6073 43.5017C64.7207 43.6687 64.7916 43.9053 64.6215 44.0723C64.4798 44.2114 64.3522 43.9609 64.2388 43.947C63.3883 43.8218 62.7788 43.0564 61.985 43.0146C61.5031 42.9868 60.9503 42.7781 60.4825 43.0146C60.0998 43.1955 59.9156 43.6269 60.0715 44.0027C60.2132 44.3645 60.114 44.7541 60.2132 45.0603C60.3833 45.6308 60.0715 46.1597 60.2416 46.7441C59.6321 46.5632 59.0651 46.3962 58.6257 45.9927C58.569 45.937 58.4698 45.8674 58.3989 45.8813C57.8177 45.937 57.5484 45.5195 57.1941 45.1994C56.9389 44.9768 56.6413 44.6846 56.216 45.0046C56.131 45.0742 56.0176 44.7681 55.7908 44.7959C55.3939 44.8376 54.9828 45.0046 54.586 44.7959C54.4726 44.7402 54.3733 44.8794 54.2883 44.949C53.8914 45.2969 53.4945 45.6308 53.0551 45.937C52.5023 46.3266 51.8645 46.5215 51.2833 46.8555C51.1274 46.9529 50.9148 46.9529 50.9148 47.2034C50.9148 47.3704 50.7022 47.3843 50.6313 47.3425C50.2344 47.106 49.9226 47.3982 49.6107 47.5234C49.0012 47.7878 48.3634 47.9687 47.7539 48.261C47.2436 48.5115 46.6341 48.8037 45.9679 48.5811C45.8545 48.5393 45.6986 48.6089 45.571 48.6785C44.8197 49.0542 43.9693 49.0264 43.1755 49.1794C42.4951 49.3186 41.8006 49.5273 41.0493 49.5413C40.0288 49.5691 38.9373 49.4995 37.9451 49.9309C37.7183 50.0283 37.5908 49.8335 37.4065 49.8474C36.6694 49.917 35.9182 49.8892 35.2094 50.1118C34.8834 50.2231 34.6708 49.9587 34.359 49.9587C33.5227 49.9587 32.6864 49.8613 31.8643 49.9587C31.2831 50.0283 30.7303 49.8335 30.135 49.9587C29.7097 50.0422 29.1853 49.75 28.6892 49.7778C28.0797 49.8196 27.4702 49.5969 26.8748 49.6108C25.8826 49.6387 24.9613 49.2351 23.9549 49.2629C23.5155 49.2629 23.0336 48.9707 22.5233 48.9568C21.6019 48.929 20.7798 48.5254 19.901 48.3027C19.6742 48.2471 19.4191 48.2471 19.2206 48.2192C18.7103 48.1497 18.356 47.76 17.8315 47.7461C17.4772 47.7461 17.1511 47.593 16.811 47.3564C16.1731 46.9111 15.3935 46.7163 14.6848 46.3684C14.217 46.1457 13.891 45.8953 13.5225 45.4639C13.3524 45.2551 13.0122 45.1438 12.7004 45.0881C12.4169 45.0464 12.1334 44.7959 11.9208 45.1855C11.8924 45.2412 11.7932 45.2969 11.7507 45.2829C10.8293 44.8933 10.2057 45.6726 9.44023 45.8535C9.14257 45.9231 8.87325 46.0901 8.58976 46.2153C8.51889 46.2432 8.39132 46.271 8.3488 46.2432C8.26375 46.1736 8.26375 46.0483 8.32045 45.9648C8.46219 45.7839 8.4055 45.4778 8.73151 45.3804C9.00082 45.3108 8.91578 44.949 8.9583 44.782C9.11422 44.1418 9.65285 43.5991 9.35519 42.8337C9.14257 42.291 8.64646 41.8874 8.06531 41.9709C7.99444 41.9709 7.90939 41.9988 7.88104 42.0544C7.65425 42.4302 7.37076 42.2771 7.08727 42.1518C6.97387 42.0962 6.87465 42.1379 6.7896 42.1936C6.2368 42.625 5.35798 42.5276 4.97527 43.2651C4.91857 43.3625 4.63508 43.3486 4.42247 43.4043C4.55004 42.8198 4.9611 42.4302 5.23041 41.9709C5.49973 41.5117 5.684 40.9968 6.08088 40.5793C6.30767 40.3567 6.50611 39.9809 6.25097 39.6052C6.1801 39.4939 6.27932 39.3547 6.3502 39.2851C6.73291 38.9233 6.47777 38.7006 6.2368 38.3806C5.95331 37.977 5.5706 37.81 5.17371 37.8935C4.72013 37.977 4.19567 37.8379 3.81296 38.2553C3.67122 38.4084 3.43025 38.3527 3.20346 38.3249C3.27433 38.0327 3.4586 37.8796 3.68539 37.6987C4.62091 36.9333 5.64147 36.2375 6.37854 35.2495C6.64786 34.9016 6.9597 34.5815 7.27154 34.2614C7.55503 33.9692 7.59755 33.663 7.49833 33.2455C7.35658 32.6193 7.45581 31.9792 7.52668 31.3391C7.54085 31.1442 7.52668 30.9911 7.49833 30.8102C7.45581 30.5041 7.34241 30.1979 7.66842 29.8918C7.85269 29.7109 7.83852 29.3212 7.89522 29.0151C7.98026 28.528 7.89522 27.9992 8.16453 27.54C8.16453 27.526 8.19288 27.4982 8.1787 27.4982C7.76764 26.8302 8.54724 26.4545 8.60394 25.884C8.66064 25.2995 8.74568 24.6872 8.9583 24.1584C9.18509 23.56 9.46858 22.9755 9.6245 22.3632C9.85129 21.4586 10.4041 20.6933 10.6876 19.8165C10.9144 19.1207 11.4247 18.6198 11.8074 18.0492C11.9208 17.8961 12.0483 17.7291 11.8782 17.4926C11.7223 17.2699 11.8782 17.0194 12.02 16.8385C12.5019 16.1984 12.4736 15.5304 12.2751 14.8068C12.105 14.1666 11.8215 13.4847 11.779 12.8724C11.7365 12.2184 11.2971 11.6478 11.4672 10.9659C11.4955 10.8685 11.3538 10.7294 11.3113 10.6041C11.2404 10.3954 10.9286 10.1866 11.3113 9.97788C11.3396 9.96397 11.3538 9.86656 11.3396 9.83872C10.9144 9.42124 11.2971 8.97593 11.2829 8.54453C11.2829 8.07138 11.3538 7.54257 11.2404 7.13901C11.0845 6.56845 11.3963 6.16488 11.4672 5.69173C11.5239 5.30208 11.7365 4.89852 11.4672 4.50887C11.3963 4.41146 11.4388 4.32796 11.4955 4.28621C12.0625 3.95223 12.261 3.33992 12.6295 2.86677C13.1823 2.15705 13.891 2.17097 14.6564 2.24055C15.1951 2.2823 15.592 2.64412 16.0881 2.79719C16.6834 2.9781 17.0378 3.493 17.5197 3.79915C18.2993 4.28621 18.7954 5.0516 19.4899 5.60824C19.8301 5.88656 20.2128 6.27621 20.4396 6.77719C20.5956 7.11117 21.0066 7.40341 21.1909 7.79306C21.2051 7.83481 21.2759 7.87656 21.3184 7.87656C22.0272 7.90439 22.1122 8.30796 22.1264 8.92026C22.1264 9.39341 22.6367 9.69956 22.8918 10.1031C22.9485 10.1866 23.0477 10.131 23.1328 10.117C23.8699 10.0753 24.5644 9.92222 25.1597 9.42124C25.3865 9.22642 25.67 9.05942 25.996 9.08726C26.0102 9.08726 26.0386 9.08726 26.0527 9.08726C26.6906 8.55844 27.541 8.72544 28.2639 8.40537C28.6608 8.22446 29.1853 8.21054 29.6389 8.26621C30.7587 8.37754 31.5383 7.86264 32.1761 7.05551C32.3462 6.83285 32.6013 6.69369 32.7573 6.42929C32.8848 6.20663 33.2392 6.12313 33.3951 6.49887C33.5085 6.76327 33.7495 6.93026 33.8629 7.20859C34.0471 7.61215 35.0535 7.70956 35.3795 7.40341C35.578 7.20859 35.8756 7.04159 36.2725 6.90243C36.3151 6.99985 36.3717 7.08334 36.3717 7.18075C36.4143 8.01572 37.0947 8.30796 37.7042 8.58628C38.016 8.72544 38.4129 8.66977 38.7672 8.79502C39.3767 8.98984 39.9862 9.15684 40.5532 9.4769C40.8367 9.6439 41.1911 9.85264 41.5738 9.65781C41.6447 9.62998 41.673 9.6439 41.7014 9.68565C42.1266 10.2562 42.7503 10.3675 43.4023 10.4649C43.6149 10.4928 43.8417 10.5484 43.9693 10.7015C44.2811 11.0912 44.5363 10.8685 44.7347 10.6459C45.1032 10.2145 45.4151 9.75523 45.7411 9.28208C45.8403 9.129 45.8687 8.94809 45.8403 8.75327C45.7836 8.37754 45.8545 8.05747 46.3648 8.09921C46.5207 8.09921 46.7049 8.01572 46.7191 7.93222C46.8325 7.37558 47.3995 7.15292 47.6263 6.65194C47.7964 6.27621 48.1791 5.97006 48.4909 5.6639C48.9445 5.21859 49.4548 4.84285 49.8517 4.32796C50.0785 4.02181 50.5037 3.95223 50.7447 3.63216C51.1416 3.11726 51.8078 3.01985 52.3322 2.7137C52.9134 2.37971 53.4945 2.40754 54.104 2.36579C54.8553 2.31013 55.0962 2.88069 55.479 3.27034C55.8191 3.61824 55.9325 4.14705 56.4003 4.39754C56.457 4.42537 56.5137 4.50887 56.4853 4.6202C56.2019 5.34383 56.4286 5.99789 56.8114 6.62411C56.8397 6.66586 56.8822 6.73544 56.8681 6.76327C56.4286 7.40341 56.783 8.12705 56.6696 8.80893C56.6413 8.98984 56.5987 9.17075 56.7972 9.30991C56.9106 9.37949 56.8539 9.51865 56.783 9.62998C56.6554 9.83872 56.457 10.0614 56.783 10.2701C56.8255 10.298 56.8681 10.3814 56.8114 10.451C56.5137 10.7572 56.5987 11.1468 56.4995 11.4947C56.1735 12.6776 55.9609 13.8744 55.649 15.0572C55.4506 15.7948 55.3939 16.5324 56.1452 17.0472C56.1735 17.0612 56.2019 17.1029 56.2019 17.1307C56.1452 18.0214 56.9248 18.4806 57.2791 19.1625C57.5059 19.5939 57.6902 20.0392 57.9595 20.4567C58.3139 20.9855 58.6257 21.5282 58.7391 22.1544C58.7674 22.3214 58.8525 22.4745 59.0368 22.5441C59.1643 22.5858 59.2068 22.7111 59.2068 22.8363C59.1785 23.9218 59.7738 24.8542 60.0006 25.87C60.0573 26.1484 60.0998 26.4545 60.3833 26.6493C60.4258 26.6772 60.4542 26.7467 60.44 26.7885C60.2699 27.8044 60.6101 28.7507 60.7802 29.7109C60.8227 29.9892 60.7377 30.3093 60.7377 30.6154C60.7377 31.0886 60.8653 31.5339 60.9078 31.9792C60.9361 32.2853 60.9361 32.4523 60.681 32.675C60.4684 32.8559 60.766 33.6074 61.0637 34.0249C61.8858 35.166 63.034 35.9174 64.1679 36.7107C64.9333 37.2534 65.7555 37.7544 66.3508 38.5476C66.0956 38.6172 65.8263 38.4362 65.6421 38.7006L65.6988 38.6728Z" fill="#151614"/>
<path d="M37.2647 38.2275C36.7828 37.5874 36.1308 37.0864 35.7622 36.3489C35.663 36.1401 35.4787 35.9175 35.2661 35.8479C34.9685 35.7226 34.9259 35.4861 34.9826 35.3051C35.1527 34.6511 35.0393 33.997 35.1244 33.343C35.1669 33.0507 35.0535 32.7307 35.3937 32.4941C35.5213 32.4106 35.6772 32.1323 35.5638 31.9096C35.5213 31.6591 35.6347 31.2556 35.2803 31.2695C34.7133 31.2973 34.2172 30.852 33.5794 31.1442C33.2533 31.2973 33.0124 31.4226 32.9132 31.7287C32.7998 32.0905 32.8848 32.4802 33.1967 32.7028C33.5227 32.9394 33.5794 33.176 33.4943 33.5239C33.4518 33.6909 33.4518 33.8579 33.466 34.0249C33.5935 35.2634 32.7856 36.1262 32.1194 36.9751C31.6375 37.5874 31.0705 38.1301 30.5885 38.7424C30.3759 39.0207 30.5885 39.7583 30.9287 39.8557C31.354 39.967 31.7509 39.9949 32.1477 39.6052C32.6013 39.1599 32.8281 38.5476 33.3384 38.144C33.5935 37.9353 33.8345 37.6848 33.877 37.3091C33.8912 37.1421 34.1038 36.9751 34.3023 37.0168C34.4724 37.0447 34.4865 37.2534 34.444 37.4065C34.3873 37.6013 34.5291 37.6848 34.5999 37.81C34.9259 38.3528 35.4646 38.7007 35.8473 39.1877C36.1308 39.5356 36.3292 39.8835 36.8678 39.7026C36.9104 39.6887 37.0096 39.7861 37.0805 39.8279C37.208 39.9114 37.3356 40.0644 37.4915 39.9114C37.6474 39.7583 37.8884 39.5356 37.775 39.3547C37.5624 38.979 37.5057 38.5476 37.2506 38.1997L37.2647 38.2275Z" fill="#151614"/>
<path d="M15.4077 7.43125C15.8187 7.70957 15.8613 8.30796 16.3999 8.44712C16.4141 8.44712 16.4282 8.50278 16.4424 8.53062C16.6125 8.97593 16.7543 9.42124 16.9527 9.85264C17.1937 10.3675 17.4346 10.9103 17.4063 11.5087C17.4063 11.5782 17.4488 11.6896 17.5055 11.7313C17.8173 11.9679 18.1717 12.107 18.5402 11.9261C18.9088 11.7452 19.2348 11.4947 19.2915 11.0494C19.2915 10.6876 19.0931 10.3954 18.9655 10.0753C18.5828 9.14292 18.2568 8.1688 17.5339 7.40341C17.2078 7.05551 16.9102 6.66586 16.6692 6.24838C16.3432 5.70565 15.9888 5.19076 15.4077 4.89852C15.0108 4.7037 14.5714 4.84286 14.2312 5.03768C13.9619 5.19076 13.9902 5.58041 14.1745 5.8309C14.5714 6.37363 14.8265 7.02768 15.4077 7.41733V7.43125Z" fill="#151614"/>
<path d="M50.0076 12.1071C50.1493 12.0792 50.5037 12.0097 50.5746 11.6896C50.688 11.1608 50.7305 10.6459 51.014 10.1588C51.3967 9.50476 51.3542 8.61413 52.1338 8.1549C52.3606 8.01574 52.233 7.70959 52.5448 7.54259C53.1969 7.18078 53.4945 6.47106 53.8631 5.85875C54.0331 5.56651 54.0331 5.19078 53.6363 5.05162C52.885 4.78721 52.3039 4.99595 51.8078 5.65001C51.5951 5.92833 51.4534 6.26231 51.2408 6.54064C50.6596 7.26427 50.0076 7.94616 49.6391 8.80896C49.3839 9.39343 49.1288 9.99182 48.8878 10.5763C48.5618 11.3417 48.987 12.0375 50.0218 12.0931L50.0076 12.1071Z" fill="#151614"/>
<path d="M29.6105 32.828C29.5255 32.3688 29.2278 32.2157 28.8876 32.5218C28.3915 32.9671 27.7536 33.2594 27.1867 33.4542C26.5772 33.649 25.9535 33.816 25.3723 34.0526C25.1739 34.1361 24.7912 34.0526 24.8479 34.4701C24.8762 34.7206 24.7345 34.9711 24.8054 35.2215C24.9471 35.6808 25.3156 35.806 25.7125 35.5277C25.7976 35.472 25.8543 35.4581 25.9535 35.472C26.6339 35.5834 27.1867 35.3607 27.6828 34.9154C27.8103 34.7901 27.9804 34.7484 28.1931 34.7345C28.7742 34.7345 29.7948 33.8021 29.7948 33.2733C29.7948 33.2455 29.7948 33.162 29.7381 33.1063C29.6672 33.0228 29.653 32.9393 29.6389 32.828H29.6105Z" fill="#151614"/>
<path d="M36.9529 26.5519C37.5482 26.3014 38.1577 25.3551 38.1436 24.6872C38.1436 24.4089 37.9309 24.2001 37.8601 23.9357C37.7608 23.6017 37.3498 23.4765 37.0946 23.727C36.797 24.0331 36.4568 24.2697 36.1875 24.6315C35.7481 25.2021 35.7622 25.6474 36.0316 26.204C36.1733 26.4963 36.6552 26.6911 36.9529 26.5658V26.5519Z" fill="#151614"/>
<path d="M31.6658 26.5379C31.9776 26.3013 32.0627 25.9256 32.1052 25.4246C32.0343 24.9932 31.6233 24.6314 31.3114 24.2C31.198 24.033 30.9571 23.9634 30.787 23.8103C30.546 23.5877 30.1917 23.7408 30.0216 24.0052C29.5396 24.7984 29.894 25.5081 30.2767 26.19C30.5318 26.6492 31.2689 26.844 31.6516 26.5518L31.6658 26.5379Z" fill="#151614"/>
<path d="M15.5211 9.83864C15.1242 9.8108 14.9399 10.1726 14.9257 10.5205C14.9257 10.8406 14.6281 11.2163 15.1525 11.4946C15.3935 11.6199 15.677 11.7173 15.8613 11.9121C16.1022 12.1487 16.3574 12.2739 16.6267 12.1487C16.9385 11.9956 17.0944 11.6616 17.1086 11.2302C17.0661 10.8406 16.8535 10.4231 16.6834 10.0195C16.4424 9.4629 15.918 9.88038 15.5353 9.85255L15.5211 9.83864Z" fill="#151614"/>
<path d="M52.0204 10.0057C52.0204 10.0057 51.9637 9.97787 51.9353 9.95003C51.6377 9.6578 51.4392 9.89437 51.34 10.117C51.1557 10.5067 51.0424 10.9381 50.929 11.2303C50.929 12.0374 51.4676 12.5106 51.9353 12.1766C52.2472 11.94 52.6299 11.8426 52.9276 11.5643C53.1402 11.3556 53.1827 11.2164 53.1543 10.9659C53.0788 10.3722 52.7008 10.0474 52.0204 9.99178V10.0057Z" fill="#151614"/>
<path d="M50.8156 51.5869C50.3336 51.5869 49.88 51.6704 49.4123 51.7122C49.2138 51.74 48.9729 51.7122 48.8028 51.7957C48.1082 52.1575 47.0593 51.9209 46.7333 52.9368C46.7191 52.9785 46.6199 53.0064 46.5632 53.0342C46.3081 53.1873 46.3081 53.6743 46.5774 53.7022C47.0877 53.7578 47.5838 54.0501 48.1082 53.8691C48.9162 53.5908 49.7383 53.3682 50.5746 53.1733C51.1416 53.0342 51.2975 52.6585 51.3542 52.1714C51.3967 51.7817 51.2408 51.5869 50.8014 51.573L50.8156 51.5869Z" fill="#151614"/>
<path d="M19.4049 52.1993C18.9797 52.074 18.6111 51.6983 18.2001 51.6844C17.7323 51.6565 17.3354 51.6287 16.9669 51.3086C16.7401 51.1138 16.4566 50.9886 16.2157 51.3365C16.1448 51.4478 16.003 51.4478 15.8755 51.3643C15.5211 51.2391 15.3652 51.5591 15.266 51.754C15.1526 51.9905 15.266 52.2549 15.6345 52.2689C15.7054 52.2689 15.8046 52.3523 15.8188 52.4219C15.9322 52.8116 16.2865 52.8533 16.5842 52.9368C17.137 53.0899 17.704 53.2012 18.271 53.3404C18.6253 53.4239 18.923 53.243 19.249 53.1873C19.4333 53.1456 19.6034 52.9507 19.6459 52.7559C19.6884 52.5472 19.7593 52.3106 19.3907 52.2132L19.4049 52.1993Z" fill="#151614"/>
<path d="M42.9629 53.062C42.4809 53.062 42.0132 53.0898 41.673 53.2012C41.2903 53.2012 41.0493 53.2151 40.8225 53.2986C40.2697 53.4934 40.1421 53.7856 40.3831 54.3005C40.539 54.6067 41.1627 54.9128 41.5171 54.8015C41.758 54.7319 41.9848 54.6902 42.2116 54.7319C43.0904 54.8711 43.2747 54.7737 43.5865 53.9526C43.8133 53.3821 43.5865 53.0898 42.9487 53.0759L42.9629 53.062Z" fill="#151614"/>
<path d="M25.7692 53.3264C25.585 53.0341 25.3298 52.8811 25.018 53.1872C24.8621 53.3542 24.692 53.2846 24.6353 53.1594C24.3518 52.5193 23.8132 52.9089 23.4304 52.9367C23.0336 52.9506 23.1328 53.4238 23.1044 53.7439C23.1044 54.2448 23.3737 54.5092 23.9124 54.5371C24.1817 54.5371 24.451 54.5927 24.7203 54.6206C25.1881 54.6623 25.5708 54.3144 26.0244 54.217C26.1661 54.1892 26.2228 53.8413 26.0244 53.6325C25.9393 53.5351 25.8401 53.4516 25.7551 53.3403L25.7692 53.3264Z" fill="#151614"/>
<path d="M36.0883 57.6265C35.6347 57.9187 35.0961 57.8909 34.6 58.0161C34.0046 58.1692 33.4235 58.1553 32.8423 58.2666C32.3604 58.364 31.9068 58.197 31.4674 58.0857C30.9288 57.9466 30.6169 58.044 30.2626 58.6841C30.0358 59.1016 30.3901 59.199 30.6736 59.3799C30.8721 59.5051 31.0705 59.5469 31.2689 59.6443C31.68 59.8252 32.1336 59.8252 32.5305 59.7696C33.0549 59.7 33.551 59.9365 34.0755 59.853C34.6708 59.7556 35.252 59.6026 35.7481 59.4356C36.3292 59.533 36.6269 59.1851 36.9529 58.9485C37.123 58.8233 37.2222 58.5171 36.9529 58.2805C36.7403 58.0857 36.4852 57.9465 36.3151 57.6961C36.2725 57.6265 36.1733 57.5708 36.0883 57.6265Z" fill="#151614"/>
<path d="M30.5461 30.184C30.4185 29.4464 29.9224 28.8619 29.7381 28.1383C29.568 27.4842 29.0861 26.8998 28.6892 26.3153C28.0797 25.4107 27.2859 24.6454 26.4638 23.9356C25.4858 23.1146 24.366 22.4884 23.1753 21.9874C22.9769 21.9039 22.7784 22.0291 22.5942 21.89C21.8996 21.4168 21.1625 21.0828 20.2837 21.2638C20.1703 21.2916 20.0853 21.222 20.0002 21.1942C19.4333 21.055 18.8663 20.888 18.2993 20.7906C17.5622 20.6515 16.8393 20.9715 16.0881 20.7906C15.4361 20.6375 14.7699 20.8741 13.8202 20.888C13.0973 20.9159 13.0406 20.9854 12.9839 21.89C12.9839 21.9456 12.998 22.0013 12.9839 22.0431C12.6437 22.5162 12.6579 23.0589 12.6579 23.6156C12.6579 24.2696 12.6579 24.9098 12.672 25.5638C12.7004 26.1622 13.3099 26.6632 12.9555 27.3172C12.9555 27.3172 12.9697 27.3451 12.9839 27.359C13.2674 27.8878 13.4233 28.4723 13.6784 29.015C14.2171 30.17 15.0533 31.0189 16.0739 31.7286C16.2865 31.8817 16.5275 32.0209 16.7401 32.174C17.0803 32.4105 17.5055 32.5358 17.9024 32.7028C18.0867 32.7863 18.2001 32.494 18.4836 32.7028C18.8805 33.0228 19.4474 33.1898 19.9577 33.2872C20.7515 33.4403 21.5594 33.496 22.3816 33.496C22.821 33.496 23.2178 33.1898 23.5722 33.3012C24.3518 33.5377 25.0464 33.2455 25.7267 33.0785C27.1584 32.7167 28.5758 32.341 29.8799 31.5895C30.461 31.2555 30.6736 30.8519 30.5602 30.17L30.5461 30.184ZM18.3843 31.0189C18.0442 30.7128 17.5197 30.7684 17.222 30.3927C17.137 30.2675 16.9953 30.2535 16.8393 30.2814C16.7543 30.2953 16.6551 30.3092 16.6125 30.2118C16.3999 29.6691 15.8896 29.3907 15.5069 29.0011C15.266 28.7367 15.1242 28.361 14.9116 28.0409C14.6706 27.6651 14.5572 27.2338 14.1745 26.9276C14.047 26.8163 14.3446 26.5658 14.2454 26.2735C13.9194 25.3133 14.1604 24.3114 14.1462 23.3233C14.1462 23.2677 14.1887 23.1842 14.2454 23.1563C14.7982 22.8641 15.3652 22.6554 16.003 22.6136C16.1731 22.6136 16.3574 22.6414 16.5133 22.5997C16.8535 22.4884 16.8819 22.6971 16.9102 22.9059C16.9102 23.2259 16.5984 23.379 16.5558 23.6573C16.4424 24.6175 16.3149 25.5499 16.4991 26.524C16.5842 26.9972 16.6125 27.4842 16.7118 27.9574C16.7826 28.2496 16.8252 28.5697 17.2079 28.6532C17.378 28.6949 17.3921 28.848 17.3921 28.9872C17.3921 29.3629 17.6189 29.683 17.6756 30.0587C17.7323 30.4623 18.1576 30.5875 18.4694 30.7684C18.5828 30.8241 18.7245 30.8519 18.682 31.005C18.6253 31.1581 18.4269 31.1024 18.3702 31.0468L18.3843 31.0189ZM28.7742 30.337C28.6892 30.4344 28.6183 30.5319 28.4341 30.5319C27.8529 30.5179 27.3001 30.5875 27.0166 31.2137C26.9174 31.4364 26.6764 31.4086 26.5205 31.3529C26.0386 31.1581 25.5708 31.172 25.0889 31.2972C25.0889 31.2555 25.0889 31.2277 25.0747 31.1859C25.4716 30.7406 25.8826 30.2953 26.2512 29.8221C26.5347 29.4464 26.9599 29.0289 26.8323 28.6393C26.6764 28.1244 26.9174 27.8182 27.0591 27.4286C27.0591 27.4007 27.0733 27.359 27.0875 27.3172C27.8529 27.693 27.9096 28.514 28.2781 29.1403C28.4482 29.4186 28.4624 29.7943 28.675 30.0726C28.7459 30.1561 28.9018 30.2118 28.7601 30.351L28.7742 30.337Z" fill="#151614"/>
<path d="M54.9262 21.6396C55.1246 21.0968 54.7986 20.8324 54.3308 20.8324C53.3386 20.8185 52.3464 20.4567 51.3542 20.8464C51.255 20.8881 51.0849 20.8742 51.014 20.8185C50.5463 20.3593 49.9793 20.9577 49.5115 20.6933C49.3131 21.0273 49.0012 20.6933 48.7177 20.8324C48.2783 21.0551 47.7964 21.2638 47.2578 21.0829C47.1302 21.0412 46.9885 21.0829 46.8467 21.1247C46.0955 21.2917 45.4293 21.6952 44.7064 21.9457C43.6008 22.3354 42.5944 22.9059 41.6872 23.6435C41.5029 23.7966 41.2053 23.8801 41.2053 24.2001C41.0635 24.2836 40.8651 24.2558 40.78 24.4506C40.6383 24.5063 40.5532 24.6176 40.4682 24.7289C40.2839 24.7846 40.3831 24.9794 40.2839 25.0768C39.9296 25.1186 39.8303 25.4387 39.6319 25.6613C39.4618 25.7587 39.5185 26.0231 39.3059 26.0927C39.1925 26.1484 39.15 26.2597 39.1074 26.3571C38.9657 26.4545 38.8523 26.5659 39.0649 26.705C38.8665 26.8442 38.5405 26.872 38.6255 27.2338C38.5546 27.3312 38.4838 27.4426 38.4129 27.54C38.2995 27.8461 37.8884 28.041 38.0869 28.4584C38.0727 28.5698 38.0444 28.6672 38.0302 28.7785C37.5057 29.196 37.1939 30.2536 37.3923 30.9216C37.3498 31.1025 37.4065 31.2417 37.5766 31.3252C37.7325 31.6035 38.1719 31.4365 38.2853 31.7705V31.8122C38.1011 31.8401 37.9026 31.854 37.7183 31.8957C37.2506 31.9931 37.1088 32.3549 37.4065 32.7168C37.4916 32.8142 37.5199 32.9255 37.4632 33.0508C37.364 33.2873 37.4632 33.4821 37.69 33.5378C38.2145 33.6352 38.583 33.9553 38.9657 34.2893C39.0082 34.3171 39.0649 34.3171 39.1074 34.331C39.5469 34.4563 40.0146 34.5259 40.4115 34.7763C40.5391 34.8598 40.7233 34.9712 40.8793 34.8459C41.021 34.7346 41.0635 34.8181 41.1627 34.9016C41.9565 35.5417 42.9487 35.3052 43.3314 34.3728C43.5015 33.9553 43.3456 33.6213 42.9204 33.5656C42.3959 33.4961 41.8006 33.6491 41.3754 33.1899C40.7659 33.51 40.4824 33.0368 40.128 32.7028C39.6035 32.6054 39.1358 32.2993 38.5972 32.2297C38.4271 32.2158 38.342 32.0488 38.3704 31.854C38.9799 32.021 39.5752 32.2158 40.1422 32.4802C41.7297 33.0925 43.3881 33.3152 45.0749 33.4543C46.5349 33.5796 47.9665 33.343 49.3272 32.7585C49.4548 32.7029 49.4832 32.4384 49.6816 32.5776C49.9793 32.7863 50.2061 32.5637 50.447 32.4802C50.9431 32.2993 51.34 31.9514 51.7794 31.687C53.3953 30.685 54.2883 29.1543 54.8269 27.4147C54.9829 26.9277 54.671 26.3293 55.1955 25.9257C55.238 24.7846 55.3089 23.6296 55.1246 22.4885C55.0821 22.2101 54.7419 22.0431 54.8553 21.7092L54.9262 21.6396ZM38.3137 31.7148C38.3137 31.7148 38.3704 31.7148 38.3987 31.7148C38.3845 31.7009 38.3562 31.687 38.3137 31.7148ZM42.807 31.1721C42.3251 31.0329 41.8573 31.0329 41.3754 31.2277C41.1911 31.2973 40.9501 31.2973 40.8509 31.0468C40.6099 30.4624 40.0571 30.4345 39.561 30.3928C39.3626 30.3789 39.235 30.3649 39.1216 30.2119C38.9657 30.017 39.2208 29.9614 39.2775 29.8501C39.5752 29.2238 39.8303 28.5976 40.0855 27.9714C40.2414 27.5957 40.5249 27.4426 40.78 27.1643C40.8651 27.3869 40.78 27.6791 41.106 27.7348C41.1627 27.7348 41.2336 27.9575 41.2053 28.0131C40.695 28.7507 41.3328 29.1821 41.6588 29.6831C41.9849 30.198 42.4243 30.6154 42.8212 31.0608C42.8212 31.1025 42.8212 31.1303 42.807 31.1721ZM53.6363 26.371C53.5796 27.1086 53.041 27.4704 52.8425 28.0549C52.559 28.9038 51.6519 29.2934 51.2833 30.0727C51.2691 30.1145 51.2124 30.1701 51.1699 30.1701C50.5604 30.198 50.1635 30.6572 49.6249 30.852C49.469 30.9077 49.2847 30.9912 49.2139 30.852C49.1146 30.6989 49.3131 30.6294 49.4406 30.6015C50.2628 30.351 50.2769 29.5856 50.4754 28.9594C50.5463 28.7507 50.5179 28.5419 50.8156 28.4584C51.0565 28.3889 51.1132 28.1245 51.1558 27.9296C51.4392 26.538 51.6093 25.1464 51.3542 23.727C51.3117 23.4765 51.2408 23.2817 51.0849 23.0868C50.929 22.9199 50.9573 22.6833 51.0282 22.5163C51.1132 22.3354 51.3117 22.5024 51.4534 22.4745C52.1196 22.3493 52.7008 22.6554 53.3103 22.8364C53.5796 22.9199 53.8631 23.0312 53.7072 23.393C53.8206 24.395 53.7072 25.3691 53.6363 26.3571V26.371Z" fill="#151614"/>
</g>
<defs>
<clipPath id="clip0_223_612">
<rect width="186.182" height="64" fill="white"/>
</clipPath>
</defs>
</svg>
